<svg width="20" height="20" viewBox="0 0 20 20" fill="none" xmlns="http://www.w3.org/2000/svg">
<path fill-rule="evenodd" clip-rule="evenodd" d="M14.1665 2.5C14.8042 2.49996 15.4178 2.7436 15.8817 3.18107C16.3457 3.61854 16.6249 4.21676 16.6623 4.85333L16.6665 5V8.625L17.1615 8.405C17.6732 8.1775 18.2632 8.53 18.3282 9.07L18.3332 9.16667V15.8333C18.3333 16.2538 18.1745 16.6588 17.8886 16.9671C17.6027 17.2754 17.2108 17.4643 16.7915 17.4958L16.6665 17.5H3.33317C2.91269 17.5001 2.5077 17.3413 2.19938 17.0554C1.89106 16.7695 1.70221 16.3776 1.67067 15.9583L1.6665 15.8333V9.16667C1.6665 8.60667 2.229 8.21083 2.74734 8.37083L2.839 8.405L3.33317 8.625V5C3.33314 4.36232 3.57677 3.74874 4.01424 3.28478C4.45171 2.82083 5.04993 2.54158 5.6865 2.50417L5.83317 2.5H14.1665ZM16.6665 10.4492L10.6765 13.1108C10.4635 13.2055 10.233 13.2544 9.99984 13.2544C9.76673 13.2544 9.53621 13.2055 9.32317 13.1108L3.33317 10.45V15.8333H16.6665V10.4492ZM14.1665 4.16667H5.83317C5.61216 4.16667 5.4002 4.25446 5.24392 4.41074C5.08764 4.56702 4.99984 4.77899 4.99984 5V9.36583L9.99984 11.5883L14.9998 9.36583V5C14.9998 4.77899 14.912 4.56702 14.7558 4.41074C14.5995 4.25446 14.3875 4.16667 14.1665 4.16667ZM9.99984 6.66667C10.2122 6.6669 10.4165 6.74823 10.571 6.89404C10.7254 7.03985 10.8184 7.23913 10.8308 7.45116C10.8433 7.6632 10.7743 7.87198 10.638 8.03486C10.5016 8.19774 10.3083 8.30241 10.0973 8.3275L9.99984 8.33333H8.33317C8.12077 8.3331 7.91648 8.25177 7.76203 8.10596C7.60758 7.96015 7.51464 7.76087 7.50219 7.54884C7.48975 7.3368 7.55873 7.12802 7.69506 6.96514C7.83138 6.80226 8.02476 6.69759 8.23567 6.6725L8.33317 6.66667H9.99984Z" fill="#61ABC5"/>
</svg>
