<svg width="22" height="22" viewBox="0 0 22 22" fill="none" xmlns="http://www.w3.org/2000/svg">
<path d="M16.5 11.9166L19.25 14.6666V18.3333C19.25 18.8195 19.0568 19.2858 18.713 19.6296C18.3692 19.9734 17.9029 20.1666 17.4167 20.1666H4.58333C4.0971 20.1666 3.63079 19.9734 3.28697 19.6296C2.94315 19.2858 2.75 18.8195 2.75 18.3333V14.6666L5.5 11.9166H6.26083L8.09417 13.7499H6.215L4.58333 15.5833H17.4167L15.7942 13.7499H14.0433L15.8767 11.9166H16.5ZM17.4167 18.3333V17.4166H4.58333V18.3333H17.4167ZM10.395 13.7499L5.8575 9.23076C5.77252 9.14596 5.7051 9.04523 5.6591 8.93433C5.6131 8.82344 5.58943 8.70457 5.58943 8.58451C5.58943 8.46446 5.6131 8.34558 5.6591 8.23469C5.7051 8.1238 5.77252 8.02307 5.8575 7.93826L11.6967 2.09909C11.7806 2.01375 11.8808 1.94614 11.9914 1.90027C12.1019 1.8544 12.2206 1.8312 12.3403 1.83205C12.46 1.83291 12.5783 1.8578 12.6882 1.90525C12.7981 1.95269 12.8973 2.02173 12.98 2.10826L17.5175 6.64576C17.875 7.00326 17.875 7.58076 17.5175 7.93826L11.6875 13.7499C11.6051 13.8391 11.5052 13.9102 11.3939 13.9589C11.2827 14.0075 11.1626 14.0326 11.0413 14.0326C10.9199 14.0326 10.7998 14.0075 10.6886 13.9589C10.5773 13.9102 10.4774 13.8391 10.395 13.7499ZM12.3383 4.04243L7.79167 8.57993L11.0458 11.8249L15.5833 7.28743L12.3383 4.04243Z" fill="#61ABC5"/>
</svg>
